<?xml version="1.0" encoding="UTF-8"?>
<!DOCTYPE svg PUBLIC "-//W3C//DTD SVG 1.1//EN" "http://www.w3.org/Graphics/SVG/1.1/DTD/svg11.dtd">
<svg version="1.1" xmlns="http://www.w3.org/2000/svg" xmlns:xlink="http://www.w3.org/1999/xlink" x="0" y="0" width="128" height="128" viewBox="0, 0, 128, 128">
  <g id="Layer_2" display="none">
    <path d="M0,-0 L128,-0 L128,128 L0,128 L0,-0 z" fill="#2B2B2B"/>
  </g>
  <g id="Ebene_3">
    <g>
      <path d="M93.515,24.739 L34.839,24.739 L24.7,67.832 L24.7,93.279 C24.7,99.845 27.023,103.261 33.579,103.261 L94.022,103.261 C100.155,103.261 103.3,100.667 103.3,92.87 L103.3,67.832 L93.515,24.739 L93.515,24.739 z M73.94,73.93 L54.099,73.93 L54.099,68.856 L73.94,68.856 L73.94,73.93 L73.94,73.93 z M32.048,64.135 L38.974,29.538 L89.499,29.538 L96.208,64.135 L32.048,64.135 L32.048,64.135 z" fill="#FFFFFF"/>
      <path d="M44.329,44.398 L83.445,44.398 L83.445,49.162 L44.329,49.162 z" fill="#FFFFFF"/>
      <path d="M49.251,34.554 L78.523,34.554 L78.523,39.318 L49.251,39.318 z" fill="#FFFFFF"/>
      <path d="M39.407,54.242 L88.386,54.242 L88.386,58.992 L39.407,58.992 z" fill="#FFFFFF"/>
    </g>
  </g>
</svg>
