<?xml version="1.0" encoding="UTF-8"?>
<!DOCTYPE svg PUBLIC "-//W3C//DTD SVG 1.1//EN" "http://www.w3.org/Graphics/SVG/1.1/DTD/svg11.dtd">
<svg version="1.1" xmlns="http://www.w3.org/2000/svg" xmlns:xlink="http://www.w3.org/1999/xlink" x="0" y="0" width="128" height="128" viewBox="0, 0, 128, 128">
  <g id="Ebene_3">
    <g>
      <path d="M68.685,91.091 L63.872,99.358 L59.065,91.091 L61.556,74.272 L66.189,74.272 L68.685,91.091 z" fill="#FFFFFF"/>
      <path d="M51.416,99.572 C42.736,88.07 45.517,70.098 44.66,68.955 C23.804,68.95 23.176,99.572 23.176,99.572 L51.416,99.572 z" fill="#FFFFFF"/>
      <path d="M77.175,99.572 L104.824,99.572 C104.818,99.572 104.824,68.794 86.042,68.794 C85.21,69.917 85.866,87.978 77.175,99.572 z" fill="#FFFFFF"/>
      <path d="M64.041,68.655 C55.784,68.655 48.691,52.278 48.691,43.767 C48.691,35.245 55.779,28.428 64.041,28.428 C72.308,28.428 79.317,35.25 79.317,43.767 C79.317,52.278 72.308,68.655 64.041,68.655 z" fill="#FFFFFF"/>
    </g>
  </g>
</svg>
