<?xml version="1.0" encoding="UTF-8"?>
<!DOCTYPE svg PUBLIC "-//W3C//DTD SVG 1.1//EN" "http://www.w3.org/Graphics/SVG/1.1/DTD/svg11.dtd">
<svg version="1.1" xmlns="http://www.w3.org/2000/svg" xmlns:xlink="http://www.w3.org/1999/xlink" x="0" y="0" width="16" height="16" viewBox="0, 0, 16, 16">
  <g id="Background">
    <rect x="0" y="0" width="16" height="16" fill="#000000" fill-opacity="0"/>
  </g>
  <g id="Background"/>
  <g id="Layer_1">
    <path d="M13.492,2.509 C10.454,-0.529 5.532,-0.534 2.5,2.498 C-0.534,5.533 -0.531,10.453 2.508,13.491 C5.546,16.529 10.469,16.533 13.5,13.501 C16.533,10.469 16.53,5.547 13.492,2.509 L13.492,2.509 z M9.575,11.269 L7.924,9.618 L6.272,11.269 C5.598,11.944 5.091,12.531 4.287,11.727 C3.485,10.924 4.069,10.417 4.746,9.742 L6.397,8.092 L4.746,6.44 C4.071,5.766 3.485,5.259 4.287,4.455 C5.091,3.653 5.598,4.239 6.272,4.914 L7.924,6.564 L9.575,4.914 C10.25,4.24 10.754,3.652 11.558,4.455 C12.363,5.259 11.776,5.766 11.101,6.44 L9.45,8.091 L11.101,9.741 C11.776,10.417 12.363,10.924 11.558,11.727 C10.756,12.531 10.25,11.944 9.575,11.269 L9.575,11.269 z" fill="#C42929"/>
  </g>
</svg>
