<?xml version="1.0" encoding="UTF-8"?>
<!DOCTYPE svg PUBLIC "-//W3C//DTD SVG 1.1//EN" "http://www.w3.org/Graphics/SVG/1.1/DTD/svg11.dtd">
<svg version="1.1" xmlns="http://www.w3.org/2000/svg" xmlns:xlink="http://www.w3.org/1999/xlink" x="0" y="0" width="128" height="128" viewBox="0, 0, 128, 128">
  <g id="Background">
    <rect x="0" y="0" width="128" height="128" fill="#000000" fill-opacity="0"/>
  </g>
  <g id="Layer_2" display="none">
    <path d="M0,-0 L128,-0 L128,128 L0,128 L0,-0 z" fill="#2B2B2B"/>
  </g>
  <g id="Layer_3">
    <path d="M96.765,68.363 L96.721,68.451 C96.898,66.997 97.074,65.498 97.074,64 C97.074,62.502 96.942,61.091 96.765,59.637 L96.809,59.725 L107.562,51.264 L96.853,32.667 L84.206,37.779 L84.25,37.823 C81.958,36.06 79.446,34.562 76.714,33.416 L76.758,33.416 L74.731,19.931 L53.269,19.931 L51.33,33.46 L51.374,33.46 C48.642,34.606 46.13,36.104 43.838,37.867 L43.883,37.823 L31.191,32.667 L20.438,51.264 L31.191,59.725 L31.235,59.637 C31.058,61.091 30.926,62.502 30.926,64 C30.926,65.498 31.058,66.997 31.279,68.451 L31.235,68.363 L21.98,75.634 C21.143,76.295 20.526,76.78 20.526,76.78 L31.235,95.289 L43.927,90.221 L43.838,90.045 C46.174,91.852 48.686,93.35 51.462,94.496 L51.33,94.496 L53.313,108.069 L74.687,108.069 C74.687,108.069 74.819,107.276 74.951,106.218 L76.626,94.54 L76.582,94.54 C79.314,93.394 81.87,91.896 84.206,90.089 L84.118,90.265 L96.809,95.333 L107.518,76.824 C107.518,76.824 106.901,76.295 106.064,75.678 L96.765,68.363 z M63.978,79.424 C55.473,79.424 48.554,72.505 48.554,64 C48.554,55.495 55.473,48.576 63.978,48.576 C72.483,48.576 79.402,55.495 79.402,64 C79.402,72.505 72.483,79.424 63.978,79.424 z" fill="#FFFFFF"/>
  </g>
</svg>
