<?xml version="1.0" encoding="UTF-8"?>
<!DOCTYPE svg PUBLIC "-//W3C//DTD SVG 1.1//EN" "http://www.w3.org/Graphics/SVG/1.1/DTD/svg11.dtd">
<svg version="1.1" xmlns="http://www.w3.org/2000/svg" xmlns:xlink="http://www.w3.org/1999/xlink" x="0" y="0" width="17" height="16" viewBox="0, 0, 17, 16">
  <g id="Background">
    <rect x="0" y="0" width="17" height="16" fill="#000000" fill-opacity="0"/>
  </g>
  <g id="Background"/>
  <g id="Layer_1">
    <path d="M2.5,10 C1.4,10 0.5,9.1 0.5,8 C0.5,6.9 1.4,6 2.5,6 C3.6,6 4.5,6.9 4.5,8 C4.5,9.1 3.6,10 2.5,10 z M10.5,8 C10.5,6.9 9.6,6 8.5,6 C7.4,6 6.5,6.9 6.5,8 C6.5,9.1 7.4,10 8.5,10 C9.6,10 10.5,9.1 10.5,8 z M16.5,8 C16.5,6.9 15.6,6 14.5,6 C13.4,6 12.5,6.9 12.5,8 C12.5,9.1 13.4,10 14.5,10 C15.6,10 16.5,9.1 16.5,8 z" fill="#E0E0E0"/>
  </g>
</svg>
