<?xml version="1.0" encoding="UTF-8"?>
<!DOCTYPE svg PUBLIC "-//W3C//DTD SVG 1.1//EN" "http://www.w3.org/Graphics/SVG/1.1/DTD/svg11.dtd">
<svg version="1.1" xmlns="http://www.w3.org/2000/svg" xmlns:xlink="http://www.w3.org/1999/xlink" x="0" y="0" width="17" height="16" viewBox="0, 0, 17, 16">
  <g id="Background">
    <rect x="0" y="0" width="17" height="16" fill="#000000" fill-opacity="0"/>
  </g>
  <g id="Background"/>
  <g id="Layer_1">
    <path d="M8.5,0.249 C4.221,0.249 0.749,3.719 0.749,8 C0.749,12.281 4.221,15.75 8.5,15.75 C12.779,15.75 16.25,12.281 16.25,8 C16.25,3.719 12.779,0.249 8.5,0.249 L8.5,0.249 z M7.554,3.179 L9.507,3.179 L9.507,5.131 L7.554,5.131 L7.554,3.179 L7.554,3.179 z M9.507,11.737 C9.507,12.402 9.071,12.942 8.53,12.942 C7.991,12.942 7.554,12.403 7.554,11.737 L7.554,7.313 C7.554,6.649 7.991,6.108 8.53,6.108 C9.071,6.108 9.507,6.648 9.507,7.313 L9.507,11.737 L9.507,11.737 z" fill="#E0E0E0"/>
  </g>
</svg>
